<svg width="24" height="24" viewBox="0 0 24 24" fill="none" xmlns="http://www.w3.org/2000/svg">
<g clip-path="url(#clip0_2_509)">
<path d="M4.59375 4.98379C4.9629 4.94076 5.32546 5.10599 5.53516 5.41282C7.01054 7.57163 8.78262 8.46969 10.7489 8.67401C10.8454 7.83282 11.0724 7.00167 11.4991 6.26991C12.125 5.19626 13.143 4.40582 14.5972 4.11374C16.6066 3.71014 18.1366 4.43784 19.0244 5.32905L20.8162 4.99409C21.199 4.92255 21.5884 5.07965 21.8144 5.39673C22.0403 5.71381 22.0617 6.13321 21.8691 6.47162L20.1496 9.4937C20.3064 13.8551 19.0944 16.8988 16.5103 18.9958C15.1395 20.1081 13.178 20.739 11.0249 20.9338C8.85497 21.1301 6.40214 20.8927 3.96382 20.1807C3.53604 20.0558 3.24254 19.6629 3.24412 19.2173C3.24569 18.7716 3.54195 18.3808 3.9706 18.2589C5.19682 17.9102 6.13012 17.6087 6.97377 17.0822C5.77531 16.4459 4.89225 15.6141 4.26726 14.6658C3.39859 13.3477 3.07648 11.8783 3.01253 10.553C2.94859 9.22784 3.14009 8.00048 3.34178 7.11465C3.45659 6.61039 3.59069 6.10378 3.77553 5.61983C3.90978 5.27103 4.22461 5.02683 4.59375 4.98379Z" fill="#722EA9"/>
</g>
<defs>
<clipPath id="clip0_2_509">
<rect width="24" height="24" fill="white"/>
</clipPath>
</defs>
</svg>
