<svg width="24" height="24" viewBox="0 0 24 24" fill="none" xmlns="http://www.w3.org/2000/svg">
<g clip-path="url(#clip0_2_491)">
<path fill-rule="evenodd" clip-rule="evenodd" d="M16.0235 4.50341C17.8529 4.3766 19.267 5.44519 20.2076 6.67737C21.156 7.91976 21.8094 9.54336 22.1673 11.1394C22.5251 12.7347 22.6208 14.4504 22.3239 15.9123C22.0388 17.3161 21.2785 18.9223 19.5568 19.437C17.9375 19.9211 16.5179 19.2167 15.5052 18.3648C14.4894 17.5103 13.6292 16.3122 12.953 15.1885C12.6252 14.6438 12.3272 14.0938 12.0637 13.573C11.8001 14.0938 11.5021 14.6438 11.1743 15.1885C10.4981 16.3122 9.63792 17.5103 8.62209 18.3648C7.60941 19.2167 6.18982 19.9211 4.57048 19.437C2.84884 18.9223 2.08848 17.3161 1.80341 15.9123C1.50655 14.4504 1.60217 12.7347 1.95995 11.1394C2.31789 9.54336 2.97134 7.91976 3.91972 6.67737C4.86029 5.44519 6.27437 4.3766 8.10383 4.50341C9.81997 4.62238 11.0675 5.78649 11.8447 6.77187L12.0637 7.0609L12.2827 6.77187C13.0598 5.78649 14.3073 4.62238 16.0235 4.50341ZM7.89637 7.49623C7.47584 7.46708 6.92691 7.6821 6.30436 8.49766C5.68961 9.30301 5.17981 10.4913 4.88724 11.7959C4.59453 13.1011 4.5524 14.3747 4.74341 15.3153C4.90819 16.1268 5.17222 16.4174 5.33536 16.5187L5.40277 16.5532L5.42973 16.5627C5.6624 16.6322 6.04382 16.6134 6.69089 16.0691C7.33482 15.5274 7.99318 14.6564 8.60392 13.6416C8.87629 13.189 9.1286 12.7252 9.35565 12.2791L9.61563 11.7541L9.84936 11.2571L10.0548 10.7994L10.23 10.3919L10.373 10.0459C10.2165 9.73315 9.99218 9.32834 9.71032 8.92724C9.06612 8.01052 8.42073 7.53258 7.89637 7.49623ZM16.2309 7.49623C15.7066 7.53258 15.0612 8.01052 14.417 8.92724C14.1351 9.32834 13.9108 9.73315 13.7543 10.0459L13.981 10.5887L14.1716 11.0227C14.2058 11.099 14.2413 11.1773 14.278 11.2571L14.5117 11.7541L14.7717 12.2791C14.9987 12.7252 15.251 13.189 15.5234 13.6416C16.1341 14.6564 16.7925 15.5274 17.4364 16.0691C18.0373 16.5745 18.4091 16.6268 18.6454 16.5761L18.6976 16.5627C18.8279 16.5237 19.1811 16.3141 19.3839 15.3153C19.5749 14.3747 19.5328 13.1011 19.2401 11.7959C18.9475 10.4913 18.4377 9.30301 17.8229 8.49766C17.2004 7.6821 16.6515 7.46708 16.2309 7.49623Z" fill="#722EA9"/>
</g>
<defs>
<clipPath id="clip0_2_491">
<rect width="24" height="24" fill="white"/>
</clipPath>
</defs>
</svg>
