<svg width="372" height="105" viewBox="0 0 372 105" fill="none" xmlns="http://www.w3.org/2000/svg">
<path d="M49.874 71.9055L48.5183 72.3701L49.882 76.3494L51.2314 72.3652L49.874 71.9055ZM74.0929 0.395271V-1.0378H73.0652L72.7356 -0.0644302L74.0929 0.395271ZM98.1685 0.395271L99.5146 0.886993L100.218 -1.0378H98.1685V0.395271ZM61.052 102V103.433H62.0542L62.398 102.492L61.052 102ZM37.6929 102L36.3475 102.493L36.6921 103.433H37.6929V102ZM0.433071 0.395271V-1.0378H-1.61885L-0.912385 0.888668L0.433071 0.395271ZM25.3685 0.395271L26.7242 -0.0693016L26.3923 -1.0378H25.3685V0.395271ZM51.2314 72.3652L75.4503 0.854969L72.7356 -0.0644302L48.5167 71.4458L51.2314 72.3652ZM74.0929 1.82834H98.1685V-1.0378H74.0929V1.82834ZM96.8224 -0.0964508L59.7059 101.508L62.398 102.492L99.5146 0.886993L96.8224 -0.0964508ZM61.052 100.567H37.6929V103.433H61.052V100.567ZM39.0384 101.507L1.77853 -0.0981255L-0.912385 0.888668L36.3475 102.493L39.0384 101.507ZM0.433071 1.82834H25.3685V-1.0378H0.433071V1.82834ZM24.0128 0.85984L48.5183 72.3701L51.2297 71.4409L26.7242 -0.0693016L24.0128 0.85984ZM115.768 57.8614L114.342 57.7277L114.195 59.2945H115.768V57.8614ZM144.287 57.8614V59.2945H145.806L145.717 57.7773L144.287 57.8614ZM140.417 49.4063L139.383 50.3987L139.394 50.4093L139.404 50.4196L140.417 49.4063ZM119.924 49.5496L118.911 48.5363L119.924 49.5496ZM145.863 76.348L146.254 74.9693L144.96 74.6027L144.512 75.87L145.863 76.348ZM164.063 81.5071L165.445 81.8875L165.822 80.5162L164.454 80.1283L164.063 81.5071ZM152.742 97.8441L153.589 98.9997L153.595 98.9952L153.601 98.9906L152.742 97.8441ZM104.877 93.8315L103.885 94.8653L103.891 94.8718L104.877 93.8315ZM104.59 39.0882L103.584 38.068L103.577 38.0749L104.59 39.0882ZM155.751 38.3717L154.723 39.3698L154.73 39.3774L154.738 39.385L155.751 38.3717ZM164.923 71.9055V73.3386H165.956L166.282 72.3587L164.923 71.9055ZM115.338 71.9055V70.4724H113.834L113.907 71.9753L115.338 71.9055ZM120.354 81.7937L119.427 82.8864L119.437 82.8947L119.447 82.9028L120.354 81.7937ZM115.768 59.2945H144.287V56.4283H115.768V59.2945ZM145.717 57.7773C145.505 54.1642 144.057 51.0192 141.431 48.393L139.404 50.4196C141.555 52.5703 142.686 55.062 142.856 57.9456L145.717 57.7773ZM141.451 48.4138C138.792 45.644 134.863 44.3905 129.956 44.3905V47.2567C134.411 47.2567 137.457 48.3917 139.383 50.3987L141.451 48.4138ZM129.956 44.3905C125.452 44.3905 121.715 45.7318 118.911 48.5363L120.938 50.5629C123.101 48.3995 126.052 47.2567 129.956 47.2567V44.3905ZM118.911 48.5363C116.227 51.2204 114.664 54.2907 114.342 57.7277L117.195 57.9952C117.446 55.3177 118.654 52.8468 120.938 50.5629L118.911 48.5363ZM145.472 77.7268L163.672 82.8858L164.454 80.1283L146.254 74.9693L145.472 77.7268ZM162.681 81.1266C160.955 87.3973 157.373 92.5791 151.882 96.6976L153.601 98.9906C159.575 94.5107 163.541 88.8011 165.445 81.8875L162.681 81.1266ZM151.894 96.6885C146.456 100.677 139.605 102.717 131.246 102.717V105.583C140.083 105.583 147.563 103.419 153.589 98.9997L151.894 96.6885ZM131.246 102.717C121.281 102.717 112.848 99.409 105.863 92.7912L103.891 94.8718C111.428 102.011 120.574 105.583 131.246 105.583V102.717ZM105.87 92.7977C99.0322 86.2338 95.5621 77.4127 95.5621 66.1732H92.696C92.696 78.054 96.3913 87.6717 103.885 94.8653L105.87 92.7977ZM95.5621 66.1732C95.5621 55.4196 98.9325 46.7728 105.604 40.1015L103.577 38.0749C96.2999 45.3521 92.696 54.762 92.696 66.1732H95.5621ZM105.597 40.1084C112.407 33.39 120.409 30.0598 129.669 30.0598V27.1937C119.631 27.1937 110.913 30.8378 103.584 38.068L105.597 40.1084ZM129.669 30.0598C140.457 30.0598 148.746 33.2114 154.723 39.3698L156.779 37.3736C150.146 30.5387 141.046 27.1937 129.669 27.1937V30.0598ZM154.738 39.385C160.803 45.4503 163.92 53.9791 163.92 65.1701H166.786C166.786 53.4319 163.501 44.0951 156.764 37.3583L154.738 39.385ZM163.92 65.1701C163.92 66.9708 163.884 68.4059 163.815 69.4855C163.743 70.6134 163.641 71.2188 163.563 71.4523L166.282 72.3587C166.491 71.7323 166.604 70.7852 166.675 69.6681C166.75 68.5025 166.786 66.9998 166.786 65.1701H163.92ZM164.923 70.4724H115.338V73.3386H164.923V70.4724ZM113.907 71.9753C114.119 76.312 115.99 79.9705 119.427 82.8864L121.281 80.701C118.413 78.2668 116.94 75.3332 116.77 71.8357L113.907 71.9753ZM119.447 82.9028C122.87 85.704 126.922 87.0961 131.532 87.0961V84.2299C127.544 84.2299 124.144 83.0424 121.262 80.6846L119.447 82.9028ZM131.532 87.0961C135.408 87.0961 138.733 86.2777 141.413 84.5358C144.106 82.7854 146.027 80.1799 147.214 76.8261L144.512 75.87C143.501 78.7261 141.935 80.7781 139.851 82.1327C137.754 83.4958 135.013 84.2299 131.532 84.2299V87.0961ZM224.624 30.7764H226.057V29.7041L225.028 29.4015L224.624 30.7764ZM224.624 52.2724L224.292 53.6665L226.057 54.0868V52.2724H224.624ZM205.707 56.285L204.694 55.2717L204.686 55.2795L204.678 55.2874L205.707 56.285ZM201.121 102V103.433H202.554V102H201.121ZM179.339 102H177.905V103.433H179.339V102ZM179.339 30.7764V29.3433H177.905V30.7764H179.339ZM200.405 30.7764H201.838V29.3433H200.405V30.7764ZM200.405 40.378H198.972L201.7 40.9914L200.405 40.378ZM208.287 32.4961L208.885 33.7983L208.287 32.4961ZM223.19 30.7764V52.2724H226.057V30.7764H223.19ZM224.956 50.8783C222.817 50.3693 220.41 50.1228 217.745 50.1228V52.989C220.239 52.989 222.417 53.2202 224.292 53.6665L224.956 50.8783ZM217.745 50.1228C212.531 50.1228 208.141 51.8239 204.694 55.2717L206.72 57.2984C209.578 54.4406 213.214 52.989 217.745 52.989V50.1228ZM204.678 55.2874C201.257 58.8153 199.688 64.1213 199.688 70.9024H202.554C202.554 64.4992 204.042 60.0603 206.736 57.2827L204.678 55.2874ZM199.688 70.9024V102H202.554V70.9024H199.688ZM201.121 100.567H179.339V103.433H201.121V100.567ZM180.772 102V30.7764H177.905V102H180.772ZM179.339 32.2094H200.405V29.3433H179.339V32.2094ZM198.972 30.7764V40.378H201.838V30.7764H198.972ZM201.7 40.9914C203.28 37.6545 205.667 35.2769 208.885 33.7983L207.688 31.1939C203.837 32.9635 200.968 35.8405 199.11 39.7645L201.7 40.9914ZM208.885 33.7983C212.251 32.2516 215.583 31.4929 218.891 31.4929V28.6268C215.13 28.6268 211.392 29.4922 207.688 31.1939L208.885 33.7983ZM218.891 31.4929C220.99 31.4929 222.759 31.7217 224.219 32.1512L225.028 29.4015C223.24 28.8757 221.187 28.6268 218.891 28.6268V31.4929ZM232.521 81.7937L232.27 80.3829L230.98 80.6128L231.093 81.9178L232.521 81.7937ZM251.008 78.4976L252.437 78.3955L252.324 76.8073L250.756 77.0868L251.008 78.4976ZM254.017 85.3764L252.978 86.3634L253.004 86.39L253.03 86.4154L254.017 85.3764ZM268.348 86.3795L269.243 87.4986L269.265 87.481L269.286 87.4625L268.348 86.3795ZM263.475 76.0614L263.157 77.4586L263.162 77.4597L263.475 76.0614ZM255.307 74.1984L255.626 72.8012L255.614 72.7986L255.602 72.7961L255.307 74.1984ZM239.257 66.1732L238.18 67.1188L238.186 67.1254L238.191 67.1319L239.257 66.1732ZM241.836 35.5055L240.894 34.4258L240.884 34.4344L241.836 35.5055ZM282.249 35.3622L281.246 36.3861L281.257 36.3967L281.268 36.407L282.249 35.3622ZM289.987 49.8362L290.245 51.246L291.533 51.0108L291.414 49.7065L289.987 49.8362ZM271.931 53.1323L270.506 53.2905L270.676 54.818L272.188 54.5421L271.931 53.1323ZM268.921 46.8268L267.908 47.8401L267.922 47.8546L267.937 47.8686L268.921 46.8268ZM256.31 46.1102L255.45 44.9638L256.31 46.1102ZM259.606 55.8551L259.883 54.4491L259.871 54.4467L259.859 54.4446L259.606 55.8551ZM269.064 57.7181L269.345 56.3129L269.341 56.3121L269.064 57.7181ZM283.538 97.1276L284.521 98.1705L284.527 98.1656L284.532 98.1606L283.538 97.1276ZM248.572 101.857L248.061 103.196L248.072 103.2L248.572 101.857ZM239.257 95.9811L238.163 96.9068L238.182 96.9295L238.202 96.9514L239.257 95.9811ZM234.384 88.6724L233.072 89.2496L233.082 89.2712L233.092 89.2926L234.384 88.6724ZM232.773 83.2045L251.259 79.9085L250.756 77.0868L232.27 80.3829L232.773 83.2045ZM249.578 78.5997C249.793 81.5998 250.93 84.2073 252.978 86.3634L255.056 84.3894C253.474 82.724 252.605 80.7456 252.437 78.3955L249.578 78.5997ZM253.03 86.4154C255.288 88.5599 258.412 89.5323 262.186 89.5323V86.6661C258.89 86.6661 256.568 85.8233 255.004 84.3374L253.03 86.4154ZM262.186 89.5323C265.042 89.5323 267.462 88.9231 269.243 87.4986L267.453 85.2605C266.367 86.1289 264.68 86.6661 262.186 86.6661V89.5323ZM269.286 87.4625C270.997 85.9797 271.931 84.118 271.931 81.937H269.064C269.064 83.1954 268.565 84.2953 267.409 85.2966L269.286 87.4625ZM271.931 81.937C271.931 80.0492 271.133 78.4508 269.662 77.2194C268.244 76.0332 266.238 75.2129 263.789 74.6631L263.162 77.4597C265.394 77.9609 266.899 78.6453 267.822 79.4176C268.691 80.1447 269.064 80.9587 269.064 81.937H271.931ZM263.794 74.6642L255.626 72.8012L254.988 75.5956L263.157 77.4586L263.794 74.6642ZM255.602 72.7961C248.512 71.3034 243.486 68.7301 240.322 65.2146L238.191 67.1319C241.906 71.2594 247.58 74.0362 255.012 75.6008L255.602 72.7961ZM240.333 65.2277C237.13 61.5796 235.531 57.2847 235.531 52.2724H232.664C232.664 57.9605 234.504 62.9328 238.18 67.1188L240.333 65.2277ZM235.531 52.2724C235.531 46.111 237.919 40.905 242.788 36.5766L240.884 34.4344C235.435 39.2777 232.664 45.2496 232.664 52.2724H235.531ZM242.778 36.5852C247.739 32.2556 253.936 30.0598 261.469 30.0598V27.1937C253.334 27.1937 246.442 29.5838 240.894 34.4258L242.778 36.5852ZM261.469 30.0598C270.528 30.0598 277.027 32.2552 281.246 36.3861L283.251 34.3383C278.299 29.4887 270.945 27.1937 261.469 27.1937V30.0598ZM281.268 36.407C285.752 40.6162 288.121 45.1327 288.56 49.966L291.414 49.7065C290.898 44.0306 288.109 38.8977 283.23 34.3174L281.268 36.407ZM289.73 48.4264L271.673 51.7225L272.188 54.5421L290.245 51.246L289.73 48.4264ZM273.355 52.974C273.035 50.0923 271.896 47.6654 269.905 45.7849L267.937 47.8686C269.385 49.2365 270.253 51.0132 270.506 53.2905L273.355 52.974ZM269.934 45.8134C267.954 43.8331 265.144 42.9575 261.756 42.9575V45.8236C264.673 45.8236 266.64 46.5722 267.908 47.8401L269.934 45.8134ZM261.756 42.9575C259.377 42.9575 257.252 43.6126 255.45 44.9638L257.17 47.2567C258.426 46.315 259.931 45.8236 261.756 45.8236V42.9575ZM255.45 44.9638C253.583 46.3642 252.584 48.2594 252.584 50.5527H255.45C255.45 49.2156 255.98 48.1491 257.17 47.2567L255.45 44.9638ZM252.584 50.5527C252.584 52.3286 253.177 53.8805 254.428 55.0676C255.637 56.2149 257.338 56.9039 259.353 57.2656L259.859 54.4446C258.149 54.1375 257.054 53.6084 256.401 52.9883C255.789 52.408 255.45 51.643 255.45 50.5527H252.584ZM259.329 57.2612L268.788 59.1242L269.341 56.3121L259.883 54.4491L259.329 57.2612ZM268.783 59.1234C275.751 60.5169 280.889 63.1329 284.351 66.8617L286.452 64.9115C282.462 60.6151 276.708 57.7855 269.345 56.3129L268.783 59.1234ZM284.351 66.8617C287.833 70.6109 289.557 74.9923 289.557 80.074H292.423C292.423 74.2644 290.422 69.1875 286.452 64.9115L284.351 66.8617ZM289.557 80.074C289.557 86.2569 287.246 91.5741 282.545 96.0946L284.532 98.1606C289.766 93.1273 292.423 87.0754 292.423 80.074H289.557ZM282.556 96.0846C277.929 100.444 271.349 102.717 262.616 102.717V105.583C271.843 105.583 279.212 103.173 284.521 98.1705L282.556 96.0846ZM262.616 102.717C257.499 102.717 252.991 101.972 249.071 100.514L248.072 103.2C252.368 104.798 257.223 105.583 262.616 105.583V102.717ZM249.082 100.518C245.212 99.0435 242.318 97.1917 240.311 95.0108L238.202 96.9514C240.59 99.5474 243.905 101.613 248.061 103.196L249.082 100.518ZM240.351 95.0554C238.31 92.6442 236.759 90.3093 235.676 88.0523L233.092 89.2926C234.302 91.8125 235.999 94.3501 238.163 96.9068L240.351 95.0554ZM235.696 88.0953C234.697 85.8249 234.124 83.685 233.949 81.6696L231.093 81.9178C231.3 84.2972 231.97 86.7431 233.072 89.2496L235.696 88.0953ZM321.492 57.8614L320.066 57.7277L319.919 59.2945H321.492V57.8614ZM350.011 57.8614V59.2945H351.53L351.441 57.7773L350.011 57.8614ZM346.141 49.4063L345.107 50.3987L345.118 50.4093L345.128 50.4196L346.141 49.4063ZM325.648 49.5496L324.635 48.5363L325.648 49.5496ZM351.587 76.348L351.978 74.9693L350.684 74.6027L350.236 75.87L351.587 76.348ZM369.787 81.5071L371.169 81.8875L371.546 80.5162L370.178 80.1283L369.787 81.5071ZM358.466 97.8441L359.313 98.9997L359.319 98.9952L359.326 98.9906L358.466 97.8441ZM310.601 93.8315L309.609 94.8653L309.616 94.8718L310.601 93.8315ZM310.314 39.0882L309.308 38.068L309.301 38.0749L310.314 39.0882ZM361.475 38.3717L360.447 39.3698L360.454 39.3774L360.462 39.385L361.475 38.3717ZM370.647 71.9055V73.3386H371.68L372.006 72.3587L370.647 71.9055ZM321.063 71.9055V70.4724H319.558L319.631 71.9753L321.063 71.9055ZM326.078 81.7937L325.151 82.8864L325.161 82.8947L325.171 82.9028L326.078 81.7937ZM321.492 59.2945H350.011V56.4283H321.492V59.2945ZM351.441 57.7773C351.229 54.1642 349.781 51.0192 347.155 48.393L345.128 50.4196C347.279 52.5703 348.41 55.062 348.58 57.9456L351.441 57.7773ZM347.175 48.4138C344.516 45.644 340.587 44.3905 335.68 44.3905V47.2567C340.135 47.2567 343.181 48.3917 345.107 50.3987L347.175 48.4138ZM335.68 44.3905C331.176 44.3905 327.44 45.7318 324.635 48.5363L326.662 50.5629C328.825 48.3995 331.776 47.2567 335.68 47.2567V44.3905ZM324.635 48.5363C321.951 51.2204 320.388 54.2907 320.066 57.7277L322.919 57.9952C323.17 55.3177 324.378 52.8468 326.662 50.5629L324.635 48.5363ZM351.196 77.7268L369.396 82.8858L370.178 80.1283L351.978 74.9693L351.196 77.7268ZM368.405 81.1266C366.679 87.3973 363.097 92.5791 357.606 96.6976L359.326 98.9906C365.299 94.5107 369.265 88.8011 371.169 81.8875L368.405 81.1266ZM357.618 96.6885C352.18 100.677 345.329 102.717 336.97 102.717V105.583C345.807 105.583 353.287 103.419 359.313 98.9997L357.618 96.6885ZM336.97 102.717C327.005 102.717 318.572 99.409 311.587 92.7912L309.616 94.8718C317.152 102.011 326.298 105.583 336.97 105.583V102.717ZM311.594 92.7977C304.756 86.2338 301.286 77.4127 301.286 66.1732H298.42C298.42 78.054 302.115 87.6717 309.609 94.8653L311.594 92.7977ZM301.286 66.1732C301.286 55.4196 304.657 46.7728 311.328 40.1015L309.301 38.0749C302.024 45.3521 298.42 54.762 298.42 66.1732H301.286ZM311.321 40.1084C318.131 33.39 326.133 30.0598 335.393 30.0598V27.1937C325.355 27.1937 316.637 30.8378 309.308 38.068L311.321 40.1084ZM335.393 30.0598C346.181 30.0598 354.47 33.2114 360.447 39.3698L362.503 37.3736C355.87 30.5387 346.77 27.1937 335.393 27.1937V30.0598ZM360.462 39.385C366.527 45.4503 369.644 53.9791 369.644 65.1701H372.51C372.51 53.4319 369.225 44.0951 362.488 37.3583L360.462 39.385ZM369.644 65.1701C369.644 66.9708 369.608 68.4059 369.539 69.4855C369.467 70.6134 369.365 71.2188 369.287 71.4523L372.006 72.3587C372.215 71.7323 372.328 70.7852 372.399 69.6681C372.474 68.5025 372.51 66.9998 372.51 65.1701H369.644ZM370.647 70.4724H321.063V73.3386H370.647V70.4724ZM319.631 71.9753C319.843 76.312 321.714 79.9705 325.151 82.8864L327.005 80.701C324.137 78.2668 322.664 75.3332 322.494 71.8357L319.631 71.9753ZM325.171 82.9028C328.594 85.704 332.646 87.0961 337.256 87.0961V84.2299C333.268 84.2299 329.868 83.0424 326.986 80.6846L325.171 82.9028ZM337.256 87.0961C341.132 87.0961 344.457 86.2777 347.137 84.5358C349.83 82.7854 351.751 80.1799 352.938 76.8261L350.236 75.87C349.225 78.7261 347.659 80.7781 345.575 82.1327C343.478 83.4958 340.737 84.2299 337.256 84.2299V87.0961Z" fill="white"/>
</svg>
